<svg width="1000" height="1000" viewBox="0 0 1000 1000" fill="none" xmlns="http://www.w3.org/2000/svg">
<path d="M100 1000C72.5 1000 48.9583 989.693 29.375 969.079C9.79167 948.465 0 923.684 0 894.737V315.789C0 286.842 9.79167 262.061 29.375 241.447C48.9583 220.833 72.5 210.526 100 210.526H300V105.263C300 76.3158 309.792 51.5351 329.375 30.9211C348.958 10.307 372.5 0 400 0H600C627.5 0 651.042 10.307 670.625 30.9211C690.208 51.5351 700 76.3158 700 105.263V210.526H900C927.5 210.526 951.042 220.833 970.625 241.447C990.208 262.061 1000 286.842 1000 315.789V894.737C1000 923.684 990.208 948.465 970.625 969.079C951.042 989.693 927.5 1000 900 1000H100ZM100 894.737H900V315.789H100V894.737ZM400 210.526H600V105.263H400V210.526Z" fill="black"/>
</svg>
