<svg width="38" height="38" viewBox="0 0 38 38" fill="none" xmlns="http://www.w3.org/2000/svg">
<rect width="38" height="38" rx="19" fill="#39E2F8"/>
<path d="M26.95 28C24.8667 28 22.8083 27.5458 20.775 26.6375C18.7417 25.7292 16.8917 24.4417 15.225 22.775C13.5583 21.1083 12.2708 19.2583 11.3625 17.225C10.4542 15.1917 10 13.1333 10 11.05C10 10.75 10.1 10.5 10.3 10.3C10.5 10.1 10.75 10 11.05 10H15.1C15.3333 10 15.5417 10.0792 15.725 10.2375C15.9083 10.3958 16.0167 10.5833 16.05 10.8L16.7 14.3C16.7333 14.5667 16.725 14.7917 16.675 14.975C16.625 15.1583 16.5333 15.3167 16.4 15.45L13.975 17.9C14.3083 18.5167 14.7042 19.1125 15.1625 19.6875C15.6208 20.2625 16.125 20.8167 16.675 21.35C17.1917 21.8667 17.7333 22.3458 18.3 22.7875C18.8667 23.2292 19.4667 23.6333 20.1 24L22.45 21.65C22.6 21.5 22.7958 21.3875 23.0375 21.3125C23.2792 21.2375 23.5167 21.2167 23.75 21.25L27.2 21.95C27.4333 22.0167 27.625 22.1375 27.775 22.3125C27.925 22.4875 28 22.6833 28 22.9V26.95C28 27.25 27.9 27.5 27.7 27.7C27.5 27.9 27.25 28 26.95 28ZM13.025 16L14.675 14.35L14.25 12H12.025C12.1083 12.6833 12.225 13.3583 12.375 14.025C12.525 14.6917 12.7417 15.35 13.025 16ZM21.975 24.95C22.625 25.2333 23.2875 25.4583 23.9625 25.625C24.6375 25.7917 25.3167 25.9 26 25.95V23.75L23.65 23.275L21.975 24.95Z" fill="black"/>
</svg>
