<svg width="38" height="38" viewBox="0 0 38 38" fill="none" xmlns="http://www.w3.org/2000/svg">
<rect width="38" height="38.0018" rx="19" fill="#39E2F8"/>
<path d="M4 23.0919V14.91H6.04545V17.6373H8.77273V14.91H10.8182V23.0919H8.77273V19.6828H6.04545V23.0919H4ZM14.2273 23.0919V16.9555H12.1818V14.91H18.3182V16.9555H16.2727V23.0919H14.2273ZM21.7273 23.0919V16.9555H19.6818V14.91H25.8182V16.9555H23.7727V23.0919H21.7273ZM27.1818 23.0919V14.91H31.9545C32.5 14.91 32.9773 15.1146 33.3864 15.5237C33.7955 15.9328 34 16.41 34 16.9555V18.3191C34 18.8646 33.7955 19.3419 33.3864 19.7509C32.9773 20.16 32.5 20.3646 31.9545 20.3646H29.2273V23.0919H27.1818ZM29.2273 18.3191H31.9545V16.9555H29.2273V18.3191Z" fill="black"/>
</svg>
