<svg width="1000" height="1000" viewBox="0 0 1000 1000" fill="none" xmlns="http://www.w3.org/2000/svg">
<path d="M111.111 1000C80.5556 1000 54.3982 990.208 32.6389 970.625C10.8796 951.042 0 927.5 0 900V200C0 172.5 10.8796 148.958 32.6389 129.375C54.3982 109.792 80.5556 100 111.111 100H166.667V0H277.778V100H722.222V0H833.333V100H888.889C919.444 100 945.602 109.792 967.361 129.375C989.12 148.958 1000 172.5 1000 200V900C1000 927.5 989.12 951.042 967.361 970.625C945.602 990.208 919.444 1000 888.889 1000H111.111ZM111.111 900H888.889V400H111.111V900ZM111.111 300H888.889V200H111.111V300Z" fill="black"/>
</svg>
