<svg width="1000" height="1000" viewBox="0 0 1000 1000" fill="none" xmlns="http://www.w3.org/2000/svg">
<path d="M363.184 1000L343.284 840C332.504 835.833 322.347 830.833 312.811 825C303.275 819.167 293.947 812.917 284.826 806.25L136.816 868.75L0 631.25L128.109 533.75C127.28 527.917 126.866 522.292 126.866 516.875V483.125C126.866 477.708 127.28 472.083 128.109 466.25L0 368.75L136.816 131.25L284.826 193.75C293.947 187.083 303.483 180.833 313.433 175C323.383 169.167 333.333 164.167 343.284 160L363.184 0H636.816L656.716 160C667.496 164.167 677.653 169.167 687.189 175C696.725 180.833 706.053 187.083 715.174 193.75L863.184 131.25L1000 368.75L871.891 466.25C872.72 472.083 873.134 477.708 873.134 483.125V516.875C873.134 522.292 872.305 527.917 870.647 533.75L998.756 631.25L861.94 868.75L715.174 806.25C706.053 812.917 696.517 819.167 686.567 825C676.617 830.833 666.667 835.833 656.716 840L636.816 1000H363.184ZM502.488 675C550.58 675 591.625 657.917 625.622 623.75C659.619 589.583 676.617 548.333 676.617 500C676.617 451.667 659.619 410.417 625.622 376.25C591.625 342.083 550.58 325 502.488 325C453.566 325 412.313 342.083 378.731 376.25C345.149 410.417 328.358 451.667 328.358 500C328.358 548.333 345.149 589.583 378.731 623.75C412.313 657.917 453.566 675 502.488 675Z" fill="white"/>
</svg>
