<svg width="38" height="38" viewBox="0 0 38 38" fill="none" xmlns="http://www.w3.org/2000/svg">
<rect width="38" height="38" rx="19" fill="#39E2F8"/>
<path d="M19 19C19.55 19 20.0208 18.8042 20.4125 18.4125C20.8042 18.0208 21 17.55 21 17C21 16.45 20.8042 15.9792 20.4125 15.5875C20.0208 15.1958 19.55 15 19 15C18.45 15 17.9792 15.1958 17.5875 15.5875C17.1958 15.9792 17 16.45 17 17C17 17.55 17.1958 18.0208 17.5875 18.4125C17.9792 18.8042 18.45 19 19 19ZM19 26.35C21.0333 24.4833 22.5417 22.7875 23.525 21.2625C24.5083 19.7375 25 18.3833 25 17.2C25 15.3833 24.4208 13.8958 23.2625 12.7375C22.1042 11.5792 20.6833 11 19 11C17.3167 11 15.8958 11.5792 14.7375 12.7375C13.5792 13.8958 13 15.3833 13 17.2C13 18.3833 13.4917 19.7375 14.475 21.2625C15.4583 22.7875 16.9667 24.4833 19 26.35ZM19 29C16.3167 26.7167 14.3125 24.5958 12.9875 22.6375C11.6625 20.6792 11 18.8667 11 17.2C11 14.7 11.8042 12.7083 13.4125 11.225C15.0208 9.74167 16.8833 9 19 9C21.1167 9 22.9792 9.74167 24.5875 11.225C26.1958 12.7083 27 14.7 27 17.2C27 18.8667 26.3375 20.6792 25.0125 22.6375C23.6875 24.5958 21.6833 26.7167 19 29Z" fill="black"/>
</svg>
