<svg width="1000" height="1000" viewBox="0 0 1000 1000" fill="none" xmlns="http://www.w3.org/2000/svg">
<path d="M500 500C431.25 500 372.396 475.521 323.438 426.563C274.479 377.604 250 318.75 250 250C250 181.25 274.479 122.396 323.438 73.4375C372.396 24.4792 431.25 0 500 0C568.75 0 627.604 24.4792 676.563 73.4375C725.521 122.396 750 181.25 750 250C750 318.75 725.521 377.604 676.563 426.563C627.604 475.521 568.75 500 500 500ZM0 1000V825C0 789.583 9.11458 757.031 27.3438 727.344C45.5729 697.656 69.7917 675 100 659.375C164.583 627.083 230.208 602.865 296.875 586.719C363.542 570.573 431.25 562.5 500 562.5C568.75 562.5 636.458 570.573 703.125 586.719C769.792 602.865 835.417 627.083 900 659.375C930.208 675 954.427 697.656 972.656 727.344C990.885 757.031 1000 789.583 1000 825V1000H0ZM125 875H875V825C875 813.542 872.135 803.125 866.406 793.75C860.677 784.375 853.125 777.083 843.75 771.875C787.5 743.75 730.729 722.656 673.438 708.594C616.146 694.531 558.333 687.5 500 687.5C441.667 687.5 383.854 694.531 326.563 708.594C269.271 722.656 212.5 743.75 156.25 771.875C146.875 777.083 139.323 784.375 133.594 793.75C127.865 803.125 125 813.542 125 825V875ZM500 375C534.375 375 563.802 362.76 588.281 338.281C612.76 313.802 625 284.375 625 250C625 215.625 612.76 186.198 588.281 161.719C563.802 137.24 534.375 125 500 125C465.625 125 436.198 137.24 411.719 161.719C387.24 186.198 375 215.625 375 250C375 284.375 387.24 313.802 411.719 338.281C436.198 362.76 465.625 375 500 375Z" fill="black"/>
</svg>
