<svg width="1000" height="1000" viewBox="0 0 1000 1000" fill="none" xmlns="http://www.w3.org/2000/svg">
<path d="M363.184 1000L343.284 840C332.504 835.833 322.347 830.833 312.811 825C303.275 819.167 293.947 812.917 284.826 806.25L136.816 868.75L0 631.25L128.109 533.75C127.28 527.917 126.866 522.292 126.866 516.875V483.125C126.866 477.708 127.28 472.083 128.109 466.25L0 368.75L136.816 131.25L284.826 193.75C293.947 187.083 303.483 180.833 313.433 175C323.383 169.167 333.333 164.167 343.284 160L363.184 0H636.816L656.716 160C667.496 164.167 677.653 169.167 687.189 175C696.725 180.833 706.053 187.083 715.174 193.75L863.184 131.25L1000 368.75L871.891 466.25C872.72 472.083 873.134 477.708 873.134 483.125V516.875C873.134 522.292 872.305 527.917 870.647 533.75L998.756 631.25L861.94 868.75L715.174 806.25C706.053 812.917 696.517 819.167 686.567 825C676.617 830.833 666.667 835.833 656.716 840L636.816 1000H363.184ZM450.249 900H548.507L565.92 767.5C591.625 760.833 615.464 751.042 637.438 738.125C659.411 725.208 679.519 709.583 697.761 691.25L820.896 742.5L869.403 657.5L762.438 576.25C766.584 564.583 769.486 552.292 771.144 539.375C772.803 526.458 773.632 513.333 773.632 500C773.632 486.667 772.803 473.542 771.144 460.625C769.486 447.708 766.584 435.417 762.438 423.75L869.403 342.5L820.896 257.5L697.761 310C679.519 290.833 659.411 274.792 637.438 261.875C615.464 248.958 591.625 239.167 565.92 232.5L549.751 100H451.493L434.08 232.5C408.375 239.167 384.536 248.958 362.562 261.875C340.589 274.792 320.481 290.417 302.239 308.75L179.104 257.5L130.597 342.5L237.562 422.5C233.416 435 230.514 447.5 228.856 460C227.197 472.5 226.368 485.833 226.368 500C226.368 513.333 227.197 526.25 228.856 538.75C230.514 551.25 233.416 563.75 237.562 576.25L130.597 657.5L179.104 742.5L302.239 690C320.481 709.167 340.589 725.208 362.562 738.125C384.536 751.042 408.375 760.833 434.08 767.5L450.249 900ZM502.488 675C550.58 675 591.625 657.917 625.622 623.75C659.619 589.583 676.617 548.333 676.617 500C676.617 451.667 659.619 410.417 625.622 376.25C591.625 342.083 550.58 325 502.488 325C453.566 325 412.313 342.083 378.731 376.25C345.149 410.417 328.358 451.667 328.358 500C328.358 548.333 345.149 589.583 378.731 623.75C412.313 657.917 453.566 675 502.488 675Z" fill="black"/>
</svg>
