<svg width="1000" height="1000" viewBox="0 0 1000 1000" fill="none" xmlns="http://www.w3.org/2000/svg">
<path d="M500 500C431.25 500 372.396 475.521 323.438 426.562C274.479 377.604 250 318.75 250 250C250 181.25 274.479 122.396 323.438 73.4375C372.396 24.4792 431.25 0 500 0C568.75 0 627.604 24.4792 676.562 73.4375C725.521 122.396 750 181.25 750 250C750 318.75 725.521 377.604 676.562 426.562C627.604 475.521 568.75 500 500 500ZM0 1000V825C0 789.583 9.11458 757.031 27.3438 727.344C45.5729 697.656 69.7917 675 100 659.375C164.583 627.083 230.208 602.865 296.875 586.719C363.542 570.573 431.25 562.5 500 562.5C568.75 562.5 636.458 570.573 703.125 586.719C769.792 602.865 835.417 627.083 900 659.375C930.208 675 954.427 697.656 972.656 727.344C990.885 757.031 1000 789.583 1000 825V1000H0Z" fill="white"/>
</svg>
